<?xml version="1.0" standalone="no"?>
<!DOCTYPE svg PUBLIC "-//W3C//DTD SVG 20010904//EN"
 "http://www.w3.org/TR/2001/REC-SVG-20010904/DTD/svg10.dtd">
<svg version="1.0" xmlns="http://www.w3.org/2000/svg"
 width="1250.000000pt" height="1250.000000pt" viewBox="0 0 1250.000000 1250.000000"
 preserveAspectRatio="xMidYMid meet">
<metadata>
Created by potrace 1.11, written by Peter Selinger 2001-2013
</metadata>
<g transform="translate(0.000000,1250.000000) scale(0.100000,-0.100000)"
fill="#000000" stroke="none">
<path d="M3210 11562 c-24 -3 -85 -102 -391 -641 -15 -25 -67 -116 -116 -201
-50 -85 -134 -231 -188 -325 -54 -93 -121 -210 -150 -260 -29 -49 -62 -106
-73 -125 -11 -19 -36 -64 -57 -100 -21 -36 -46 -81 -57 -100 -11 -19 -44 -75
-73 -125 -29 -49 -62 -106 -73 -125 -31 -55 -160 -279 -262 -455 -51 -88 -103
-178 -115 -200 -13 -22 -46 -80 -75 -130 -127 -218 -187 -321 -193 -335 -4 -8
-17 -31 -28 -50 -25 -41 -157 -268 -187 -320 -11 -19 -52 -91 -92 -160 -40
-69 -80 -138 -90 -155 -9 -16 -88 -154 -175 -305 -88 -151 -172 -297 -187
-325 -16 -27 -33 -57 -38 -65 -22 -35 -108 -185 -279 -482 l-182 -317 24 -38
c13 -21 35 -58 49 -83 39 -69 240 -417 339 -586 48 -83 97 -169 109 -190 48
-85 464 -806 497 -859 7 -11 15 -27 20 -35 4 -8 20 -37 36 -65 16 -27 115
-198 220 -380 104 -181 198 -343 208 -360 11 -16 22 -37 26 -45 4 -8 31 -55
60 -104 29 -49 53 -90 53 -91 0 -1 29 -52 64 -113 36 -61 76 -131 89 -154 47
-84 291 -504 333 -576 24 -40 44 -75 44 -78 0 -3 8 -18 19 -32 10 -15 30 -48
44 -74 15 -26 129 -224 254 -440 210 -364 306 -530 355 -618 11 -19 65 -112
120 -205 l99 -170 3059 0 c3048 0 3058 0 3071 20 7 11 71 121 142 245 72 124
177 305 234 403 57 98 103 181 103 184 0 4 6 14 14 22 7 9 28 43 46 76 18 33
88 155 155 270 67 116 133 230 147 255 14 25 55 96 92 159 36 62 66 116 66
118 0 3 8 17 19 31 10 15 29 45 41 67 32 58 435 755 459 796 12 19 24 41 28
49 4 8 32 58 63 110 31 52 59 102 63 110 4 8 18 33 32 55 14 22 28 47 32 55 4
8 16 31 28 50 12 19 92 157 178 306 85 149 165 286 176 305 11 19 40 70 66
114 67 118 93 164 130 225 18 30 42 71 53 92 20 34 162 281 322 558 40 69 84
145 98 170 24 44 57 101 196 339 l66 114 -44 76 c-24 42 -54 94 -66 116 -12
22 -53 92 -90 155 -37 63 -78 135 -92 160 -14 25 -82 143 -152 263 -69 119
-126 220 -126 224 0 3 -11 21 -25 39 -14 18 -25 35 -25 38 0 2 -19 37 -43 78
-24 40 -46 80 -50 88 -4 8 -16 29 -26 46 -19 31 -228 391 -263 454 -17 29
-160 277 -232 401 -12 20 -83 144 -159 275 -76 132 -142 246 -147 254 -5 8
-34 58 -63 110 -30 52 -64 111 -76 130 -11 19 -24 42 -28 50 -4 8 -31 55 -60
104 -29 49 -53 90 -53 91 0 2 -43 76 -95 166 -52 89 -95 163 -95 164 0 2 -52
92 -115 200 -63 109 -115 199 -115 201 0 2 -25 44 -55 94 -30 50 -55 93 -55
95 0 3 -16 29 -35 59 -19 30 -35 57 -35 59 0 2 -52 93 -115 202 -63 108 -115
199 -115 200 0 2 -21 39 -46 82 -57 95 -68 113 -136 233 -30 52 -67 114 -82
138 -15 24 -30 51 -34 61 -4 9 -31 57 -61 106 l-53 90 -3037 0 c-1670 0 -3047
-1 -3061 -3z"/>
</g>
</svg>
